<svg width="24" height="24" viewBox="0 0 24 24" fill="none" xmlns="http://www.w3.org/2000/svg"><path d="M18.4401 3.06006H5.56006C4.89759 3.06191 4.26277 3.32589 3.79433 3.79433C3.32589 4.26277 3.06191 4.89759 3.06006 5.56006V18.4401C3.06191 19.1025 3.32589 19.7373 3.79433 20.2058C4.26277 20.6742 4.89759 20.9382 5.56006 20.9401H18.4401C19.1031 20.9401 19.739 20.6767 20.2078 20.2078C20.6767 19.739 20.9401 19.1031 20.9401 18.4401V5.56006C20.9401 4.89702 20.6767 4.26113 20.2078 3.79229C19.739 3.32345 19.1031 3.06006 18.4401 3.06006ZM19.9401 18.4401C19.9372 18.837 19.7782 19.2169 19.4975 19.4975C19.2169 19.7782 18.837 19.9372 18.4401 19.9401H5.56006C5.16312 19.9372 4.78326 19.7782 4.50258 19.4975C4.2219 19.2169 4.06294 18.837 4.06006 18.4401V5.56006C4.06294 5.16312 4.2219 4.78326 4.50258 4.50258C4.78326 4.2219 5.16312 4.06294 5.56006 4.06006H18.4401C18.837 4.06294 19.2169 4.2219 19.4975 4.50258C19.7782 4.78326 19.9372 5.16312 19.9401 5.56006V18.4401Z" fill="black"/><path d="M6.37598 10.748C6.37598 10.4828 6.48133 10.2285 6.66887 10.0409C6.85641 9.8534 7.11076 9.74805 7.37598 9.74805C7.64119 9.74805 7.89555 9.8534 8.08308 10.0409C8.27062 10.2285 8.37598 10.4828 8.37598 10.748V17.248C8.37598 17.5133 8.27062 17.7676 8.08308 17.9552C7.89555 18.1427 7.64119 18.248 7.37598 18.248C7.11076 18.248 6.85641 18.1427 6.66887 17.9552C6.48133 17.7676 6.37598 17.5133 6.37598 17.248V10.748Z" fill="black"/><path d="M7.37598 7.7439C7.92826 7.7439 8.37598 7.29618 8.37598 6.7439C8.37598 6.19161 7.92826 5.7439 7.37598 5.7439C6.82369 5.7439 6.37598 6.19161 6.37598 6.7439C6.37598 7.29618 6.82369 7.7439 7.37598 7.7439Z" fill="black"/><path d="M17.6199 13.3701V17.2501C17.6199 17.5153 17.5145 17.7697 17.327 17.9572C17.1395 18.1448 16.8851 18.2501 16.6199 18.2501C16.3547 18.2501 16.1003 18.1448 15.9128 17.9572C15.7252 17.7697 15.6199 17.5153 15.6199 17.2501V13.3701C15.6199 12.9418 15.4497 12.531 15.1469 12.2281C14.844 11.9253 14.4332 11.7551 14.0049 11.7551C13.5766 11.7551 13.1658 11.9253 12.8629 12.2281C12.56 12.531 12.3899 12.9418 12.3899 13.3701V17.2501C12.3899 17.5153 12.2845 17.7697 12.097 17.9572C11.9095 18.1448 11.6551 18.2501 11.3899 18.2501C11.1247 18.2501 10.8703 18.1448 10.6828 17.9572C10.4952 17.7697 10.3899 17.5153 10.3899 17.2501V10.7501C10.394 10.4862 10.5007 10.2342 10.6873 10.0476C10.874 9.86091 11.126 9.75423 11.3899 9.75011C11.5593 9.74547 11.7267 9.7867 11.8746 9.86943C12.0225 9.95217 12.1452 10.0733 12.2299 10.2201C12.7797 9.90814 13.4018 9.74607 14.034 9.75011C14.6661 9.75415 15.2861 9.92416 15.8319 10.2431C16.3777 10.5621 16.8301 11.0188 17.1439 11.5676C17.4577 12.1164 17.6218 12.738 17.6199 13.3701Z" fill="black"/></svg>
