<svg width="351" height="320" viewBox="0 0 351 320" fill="none" xmlns="http://www.w3.org/2000/svg"><mask id="mask0_108_169" style="mask-type:alpha" maskUnits="userSpaceOnUse" x="0" y="0" width="351" height="320"><path d="M350.5 150.5C350.5 233.343 236.843 320 154 320C71.1573 320 0.5 218.843 0.5 136C0.5 53.1573 117.657 0.5 200.5 0.5C283.343 0.5 350.5 67.6573 350.5 150.5Z" fill="#D9D9D9"/></mask><g mask="url(#mask0_108_169)"><rect x="-99" y="-25" width="489" height="371" fill="url(#paint0_linear_108_169)" fill-opacity="0.8"/><path d="M76.3438 -46.8652C93.1891 -57.5969 114.582 -58.1538 131.963 -48.3132L209.014 -4.6886C232.305 8.4979 242.422 36.7549 232.794 61.7276L220.792 92.86C216.641 103.626 209.152 112.779 199.421 118.978L141.227 156.052C116.074 172.076 82.6935 164.675 66.6695 139.523L14.0141 56.8704C-2.00999 31.7176 5.39029 -1.66287 30.5431 -17.687L76.3438 -46.8652Z" fill="url(#paint1_linear_108_169)"/><path d="M176.638 213.1C163.154 246.754 182.256 298.015 193.492 319.438C266.528 338.719 340.813 275.618 349.553 228.876C358.292 182.134 325.831 164.021 295.868 160.516C265.904 157.01 193.492 171.033 176.638 213.1Z" fill="black"/><path d="M-42.1508 386.315C-79.3886 378.112 -93.4001 332.392 -67.1527 304.733L75.0721 154.859C86.8962 142.399 104.382 137.041 121.157 140.736L169.288 151.339C206.526 159.542 220.538 205.262 194.29 232.921L52.0654 382.795C40.2413 395.255 22.7559 400.613 5.98066 396.918L-42.1508 386.315Z" fill="#9E00FF" fill-opacity="0.69"/></g><defs><linearGradient id="paint0_linear_108_169" x1="76.5" y1="-25" x2="253.935" y2="288.977" gradientUnits="userSpaceOnUse"><stop stop-color="#F5C173"/><stop offset="1" stop-color="#F99500"/></linearGradient><linearGradient id="paint1_linear_108_169" x1="225.377" y1="-19.6839" x2="40.3418" y2="98.1965" gradientUnits="userSpaceOnUse"><stop stop-color="#FF7A00"/><stop offset="1" stop-color="#FF0F00"/></linearGradient></defs></svg>
