<svg width="261" height="232" viewBox="0 0 261 232" fill="none" xmlns="http://www.w3.org/2000/svg">
<rect x="3" y="178.692" width="276" height="68" rx="34" transform="rotate(-39 3 178.692)" fill="black"/>
<rect y="173.692" width="276" height="68" rx="34" transform="rotate(-39 0 173.692)" fill="url(#paint0_linear_116_218)"/>
<path d="M17.2825 174C15.8461 184 19.1786 205 44 209" stroke="white" stroke-opacity="0.5" stroke-width="2"/>
<g clip-path="url(#clip0_116_218)">
<path d="M77.6086 155.599L64.1754 154.173L64.6097 150.041L82.1905 151.889L81.0849 162.408L76.9403 161.958L77.6086 155.599ZM38.6216 166.314L50.8989 167.605L49.8094 178.111L67.3903 179.958L67.8245 175.827L54.3914 174.4L55.0597 168.042L92.5068 171.978L92.9411 167.846L39.072 162.17L38.6216 166.314Z" fill="white"/>
</g>
<g clip-path="url(#clip1_116_218)">
<path d="M197 54C194.863 55.7306 192.417 56.4512 189.663 56.1617C186.908 55.8722 184.666 54.6589 182.935 52.5217C181.205 50.3846 180.484 47.9388 180.774 45.1845C181.063 42.4302 182.276 40.1877 184.414 38.457C186.551 36.7264 188.996 36.0058 191.751 36.2953C194.505 36.5848 196.748 37.7982 198.478 39.9353C200.209 42.0725 200.929 44.5182 200.64 47.2725C200.35 50.0269 199.137 52.2693 197 54ZM194.043 82.1293L189.638 76.6893C188.747 75.5883 188.211 74.3464 188.03 72.9635C187.849 71.5829 188.032 70.2695 188.578 69.0234C189.772 66.3938 191.202 63.9887 192.868 61.808C194.534 59.6285 196.436 57.6735 198.573 55.9428C200.71 54.2122 203.018 52.7584 205.496 51.5815C207.976 50.4059 210.626 49.5071 213.446 48.8851C214.779 48.6104 216.101 48.705 217.414 49.1689C218.729 49.633 219.832 50.4155 220.724 51.5165L225.129 56.9565L194.043 82.1293Z" fill="white"/>
</g>
<g clip-path="url(#clip2_116_218)">
<path d="M144.701 126.69L136.929 132.983C136.379 133.429 135.766 133.616 135.091 133.545C134.418 133.475 133.859 133.164 133.413 132.614L122.4 119.014L119.097 121.688C118.644 122.055 118.166 122.094 117.663 121.804C117.16 121.514 116.969 121.079 117.089 120.499L121.473 92.7424C121.541 92.0977 121.834 91.5656 122.352 91.1461C122.87 90.7265 123.451 90.5506 124.096 90.6184L135.276 91.2158L132.759 88.1072C132.313 87.5567 132.125 86.9439 132.196 86.2688C132.267 85.596 132.578 85.0368 133.128 84.591L135.071 83.0177C135.622 82.5719 136.233 82.3844 136.906 82.4551C137.581 82.5261 138.141 82.8368 138.587 83.3873L145.352 91.7416L152.158 92.1014C152.75 92.1044 153.136 92.3819 153.315 92.934C153.494 93.486 153.357 93.9456 152.903 94.3127L149.6 96.9873L160.613 110.587C161.059 111.138 161.246 111.75 161.174 112.424C161.104 113.098 160.794 113.658 160.244 114.104L152.472 120.397L144.606 110.682C144.16 110.132 143.6 109.821 142.927 109.749C142.252 109.679 141.64 109.867 141.09 110.313L137.204 113.459C136.654 113.905 136.343 114.465 136.272 115.137C136.201 115.812 136.389 116.425 136.834 116.976L144.701 126.69ZM129.007 107.31L136.779 101.017C135.94 99.9805 134.862 99.4448 133.547 99.4097C132.233 99.3758 131.058 99.7785 130.022 100.618C128.986 101.457 128.347 102.522 128.107 103.815C127.868 105.109 128.168 106.274 129.007 107.31Z" fill="white"/>
</g>
<defs>
<linearGradient id="paint0_linear_116_218" x1="138" y1="173.692" x2="138" y2="241.692" gradientUnits="userSpaceOnUse">
<stop stop-color="white" stop-opacity="0.91"/>
<stop offset="0.0625" stop-color="#F500FA"/>
<stop offset="1" stop-color="#A80EAB"/>
</linearGradient>
<clipPath id="clip0_116_218">
<rect width="50" height="50" fill="white" transform="translate(30.8384 161.304) rotate(-39)"/>
</clipPath>
<clipPath id="clip1_116_218">
<rect width="60" height="60" fill="white" transform="translate(154.806 49.5654) rotate(-39)"/>
</clipPath>
<clipPath id="clip2_116_218">
<rect width="60" height="60" fill="white" transform="translate(93.8062 103.565) rotate(-39)"/>
</clipPath>
</defs>
</svg>
