<svg width="791" height="620" viewBox="0 0 791 620" fill="none" xmlns="http://www.w3.org/2000/svg"><path d="M13.5 618.5C134 690.5 349.2 -64.6999 790 34.5001" stroke="black" stroke-width="50"/><path d="M35 721.999C155.5 793.999 370.7 38.7991 811.5 137.999" stroke="black" stroke-width="50"/><path d="M71 812.999C191.5 884.999 406.7 129.799 847.5 228.999" stroke="black" stroke-width="50"/><path d="M120 890.999C240.5 962.999 455.7 207.799 896.5 306.999" stroke="black" stroke-width="50"/><path d="M159 981.999C279.5 1054 494.7 298.799 935.5 397.999" stroke="black" stroke-width="50"/><mask id="mask0_111_192" style="mask-type:alpha" maskUnits="userSpaceOnUse" x="541" y="413" width="249" height="207"><rect x="541" y="413" width="249" height="207" fill="#D9D9D9"/></mask><g mask="url(#mask0_111_192)"><path d="M860 610.5C860 670.976 810.975 720 750.5 720C690.025 720 641 670.975 641 610.5C641 550.025 694 610.5 750.5 501C810.975 501 860 550.025 860 610.5Z" fill="black"/></g></svg>
