<svg width="278" height="172" viewBox="0 0 278 172" fill="none" xmlns="http://www.w3.org/2000/svg">
<rect x="187.999" y="22" width="90" height="124.034" rx="7.56303" fill="black"/>
<rect x="187.999" y="22" width="86.9748" height="121.008" rx="7.56303" fill="url(#paint0_linear_116_300)"/>
<path d="M212.484 62.7013V42.0749H213.805V62.7013H212.484ZM215.352 49.2941C215.309 48.757 215.108 48.338 214.748 48.0372C214.393 47.7364 213.854 47.586 213.128 47.586C212.667 47.586 212.288 47.6424 211.992 47.7552C211.702 47.8626 211.487 48.0104 211.348 48.1984C211.208 48.3864 211.136 48.6012 211.13 48.8429C211.12 49.0417 211.154 49.2216 211.235 49.3828C211.321 49.5385 211.455 49.6809 211.638 49.8098C211.821 49.9333 212.054 50.0461 212.339 50.1482C212.624 50.2503 212.962 50.3416 213.354 50.4221L214.708 50.7122C215.621 50.9056 216.402 51.1607 217.052 51.4776C217.702 51.7946 218.234 52.1679 218.648 52.5976C219.061 53.0219 219.365 53.5 219.558 54.0318C219.757 54.5635 219.859 55.1437 219.864 55.7721C219.859 56.8572 219.588 57.7757 219.051 58.5277C218.513 59.2797 217.745 59.8518 216.746 60.2439C215.752 60.636 214.557 60.832 213.161 60.832C211.727 60.832 210.475 60.6199 209.406 60.1955C208.342 59.7712 207.515 59.1185 206.924 58.2376C206.339 57.3513 206.044 56.218 206.038 54.8375H210.292C210.319 55.3424 210.445 55.7668 210.671 56.1105C210.897 56.4543 211.214 56.7148 211.622 56.8921C212.035 57.0693 212.527 57.158 213.096 57.158C213.574 57.158 213.974 57.0989 214.297 56.9807C214.619 56.8625 214.863 56.6987 215.03 56.4892C215.196 56.2797 215.282 56.0407 215.288 55.7721C215.282 55.5197 215.199 55.2994 215.038 55.1114C214.882 54.9181 214.624 54.7462 214.265 54.5958C213.905 54.44 213.419 54.295 212.806 54.1607L211.163 53.8062C209.701 53.4892 208.549 52.9602 207.706 52.2189C206.868 51.4723 206.452 50.4544 206.457 49.1652C206.452 48.1178 206.731 47.2019 207.295 46.4177C207.864 45.6281 208.651 45.0131 209.656 44.5726C210.666 44.1322 211.823 43.9119 213.128 43.9119C214.461 43.9119 215.613 44.1348 216.585 44.5807C217.557 45.0265 218.307 45.655 218.833 46.4661C219.365 47.2718 219.633 48.2145 219.639 49.2941H215.352ZM227.595 62.7013V42.0749H228.917V62.7013H227.595ZM230.464 49.2941C230.421 48.757 230.219 48.338 229.859 48.0372C229.505 47.7364 228.965 47.586 228.24 47.586C227.778 47.586 227.399 47.6424 227.104 47.7552C226.814 47.8626 226.599 48.0104 226.459 48.1984C226.319 48.3864 226.247 48.6012 226.242 48.8429C226.231 49.0417 226.266 49.2216 226.346 49.3828C226.432 49.5385 226.567 49.6809 226.749 49.8098C226.932 49.9333 227.165 50.0461 227.45 50.1482C227.735 50.2503 228.073 50.3416 228.465 50.4221L229.819 50.7122C230.732 50.9056 231.514 51.1607 232.164 51.4776C232.814 51.7946 233.345 52.1679 233.759 52.5976C234.173 53.0219 234.476 53.5 234.669 54.0318C234.868 54.5635 234.97 55.1437 234.976 55.7721C234.97 56.8572 234.699 57.7757 234.162 58.5277C233.625 59.2797 232.857 59.8518 231.857 60.2439C230.864 60.636 229.669 60.832 228.272 60.832C226.838 60.832 225.586 60.6199 224.517 60.1955C223.454 59.7712 222.627 59.1185 222.036 58.2376C221.45 57.3513 221.155 56.218 221.149 54.8375H225.404C225.43 55.3424 225.557 55.7668 225.782 56.1105C226.008 56.4543 226.325 56.7148 226.733 56.8921C227.147 57.0693 227.638 57.158 228.208 57.158C228.686 57.158 229.086 57.0989 229.408 56.9807C229.73 56.8625 229.975 56.6987 230.141 56.4892C230.308 56.2797 230.394 56.0407 230.399 55.7721C230.394 55.5197 230.31 55.2994 230.149 55.1114C229.994 54.9181 229.736 54.7462 229.376 54.5958C229.016 54.44 228.53 54.295 227.917 54.1607L226.274 53.8062C224.813 53.4892 223.661 52.9602 222.817 52.2189C221.979 51.4723 221.563 50.4544 221.568 49.1652C221.563 48.1178 221.842 47.2019 222.406 46.4177C222.976 45.6281 223.763 45.0131 224.767 44.5726C225.777 44.1322 226.934 43.9119 228.24 43.9119C229.572 43.9119 230.724 44.1348 231.696 44.5807C232.669 45.0265 233.418 45.655 233.944 46.4661C234.476 47.2718 234.745 48.2145 234.75 49.2941H230.464Z" fill="#1713EB"/>
<path d="M241.722 57.4471V55.1267H243.204V59.252H241.797V58.4677H241.754C241.665 58.7309 241.508 58.9368 241.284 59.0854C241.06 59.2323 240.794 59.3057 240.486 59.3057C240.198 59.3057 239.946 59.2394 239.729 59.1069C239.514 58.9744 239.347 58.7918 239.227 58.559C239.109 58.3263 239.049 58.0595 239.047 57.7587V55.1267H240.529V57.4471C240.531 57.6513 240.583 57.8115 240.685 57.9279C240.789 58.0443 240.934 58.1025 241.12 58.1025C241.244 58.1025 241.35 58.0765 241.44 58.0246C241.531 57.9709 241.601 57.8957 241.649 57.799C241.7 57.7005 241.724 57.5832 241.722 57.4471ZM247.729 56.4695H246.365C246.358 56.3854 246.328 56.3129 246.276 56.252C246.224 56.1911 246.157 56.1446 246.075 56.1123C245.994 56.0783 245.905 56.0613 245.806 56.0613C245.679 56.0613 245.57 56.0846 245.479 56.1311C245.387 56.1777 245.342 56.2439 245.344 56.3299C245.342 56.3908 245.368 56.4472 245.422 56.4991C245.478 56.551 245.584 56.5913 245.742 56.6199L246.58 56.7703C247.002 56.8473 247.316 56.9771 247.522 57.1598C247.73 57.3406 247.835 57.5832 247.837 57.8876C247.835 58.1812 247.747 58.4364 247.573 58.653C247.402 58.8679 247.166 59.0344 246.867 59.1526C246.57 59.269 246.231 59.3272 245.849 59.3272C245.219 59.3272 244.726 59.1982 244.369 58.9404C244.015 58.6826 243.817 58.3424 243.776 57.9198H245.248C245.267 58.0505 245.332 58.1517 245.441 58.2233C245.552 58.2931 245.692 58.3281 245.86 58.3281C245.996 58.3281 246.108 58.3048 246.196 58.2582C246.285 58.2117 246.331 58.1454 246.333 58.0595C246.331 57.9807 246.291 57.918 246.214 57.8715C246.139 57.8249 246.021 57.7873 245.86 57.7587L245.129 57.6298C244.709 57.5564 244.394 57.4167 244.184 57.2108C243.975 57.0049 243.871 56.7399 243.872 56.4158C243.871 56.1293 243.946 55.8867 244.098 55.688C244.252 55.4874 244.471 55.3353 244.756 55.2314C245.043 55.1258 245.382 55.073 245.774 55.073C246.37 55.073 246.84 55.1965 247.184 55.4436C247.53 55.6907 247.711 56.0327 247.729 56.4695ZM249.898 59.3057C249.604 59.3057 249.334 59.2287 249.087 59.0747C248.842 58.9207 248.645 58.6871 248.496 58.3737C248.349 58.0604 248.276 57.6656 248.276 57.1893C248.276 56.6916 248.353 56.2869 248.507 55.9754C248.662 55.6638 248.863 55.4355 249.108 55.2905C249.355 55.1455 249.615 55.073 249.887 55.073C250.091 55.073 250.27 55.1088 250.424 55.1804C250.578 55.2502 250.707 55.3442 250.811 55.4624C250.915 55.5788 250.994 55.7068 251.047 55.8464H251.069V53.7516H252.551V59.252H251.08V58.5751H251.047C250.99 58.7148 250.908 58.8401 250.8 58.9512C250.695 59.0604 250.566 59.1472 250.414 59.2117C250.263 59.2743 250.091 59.3057 249.898 59.3057ZM250.446 58.1669C250.582 58.1669 250.698 58.1275 250.795 58.0487C250.893 57.9682 250.969 57.8554 251.021 57.7103C251.074 57.5635 251.101 57.3898 251.101 57.1893C251.101 56.9852 251.074 56.8106 251.021 56.6656C250.969 56.5188 250.893 56.4069 250.795 56.3299C250.698 56.2511 250.582 56.2117 250.446 56.2117C250.31 56.2117 250.193 56.2511 250.097 56.3299C250.002 56.4069 249.928 56.5188 249.876 56.6656C249.826 56.8106 249.801 56.9852 249.801 57.1893C249.801 57.3934 249.826 57.5689 249.876 57.7157C249.928 57.8607 250.002 57.9726 250.097 58.0514C250.193 58.1284 250.31 58.1669 250.446 58.1669Z" fill="#1713EB"/>
<g clip-path="url(#clip0_116_300)">
<path d="M206.244 117.341C206.244 118.254 205.502 118.996 204.59 118.996C203.678 118.996 202.935 118.254 202.935 117.341C202.935 116.429 203.678 115.687 204.59 115.687C205.502 115.687 206.244 116.429 206.244 117.341ZM205.299 119.842C205.063 119.903 204.826 119.941 204.59 119.941C203.901 119.94 203.24 119.666 202.753 119.178C202.266 118.691 201.991 118.031 201.99 117.341C201.99 116.647 202.264 116.018 202.699 115.55C202.613 115.445 202.505 115.36 202.382 115.302C202.26 115.244 202.126 115.214 201.99 115.214C201.47 115.214 201.045 115.64 201.045 116.16V116.297C199.641 116.713 198.681 118.003 198.681 119.469V122.305L197.736 123.25V123.723H206.244V123.25L205.299 122.305V119.842ZM201.99 125.141C202.515 125.141 202.935 124.72 202.935 124.195H201.045C201.045 124.446 201.144 124.687 201.322 124.864C201.499 125.041 201.739 125.141 201.99 125.141Z" fill="url(#paint1_linear_116_300)" fill-opacity="0.96"/>
</g>
<path d="M201.045 108.313C200.525 108.313 200.079 108.127 199.709 107.757C199.339 107.387 199.154 106.942 199.154 106.422C199.154 105.902 199.339 105.457 199.709 105.086C200.079 104.716 200.525 104.531 201.045 104.531C201.226 104.531 201.393 104.553 201.547 104.596C201.7 104.639 201.848 104.704 201.99 104.791V100.75C201.99 100.49 202.083 100.267 202.268 100.082C202.453 99.8967 202.675 99.8042 202.935 99.8042H203.881C204.141 99.8042 204.363 99.8967 204.549 100.082C204.734 100.267 204.826 100.49 204.826 100.75C204.826 101.01 204.734 101.232 204.549 101.417C204.363 101.602 204.141 101.695 203.881 101.695H202.935V106.422C202.935 106.942 202.75 107.387 202.38 107.757C202.01 108.127 201.565 108.313 201.045 108.313Z" fill="url(#paint2_linear_116_300)" fill-opacity="0.96"/>
<path d="M205.299 85.5342L204.632 84.8677L201.99 87.51L199.348 84.8677L198.681 85.5342L201.323 88.1765L198.681 90.8188L199.348 91.4853L201.99 88.843L204.632 91.4853L205.299 90.8188L202.656 88.1765L205.299 85.5342Z" fill="url(#paint3_linear_116_300)" fill-opacity="0.96"/>
<path d="M200.832 77.3989L198.138 74.7046L198.811 74.031L200.832 76.0518L205.169 71.7148L205.843 72.3884L200.832 77.3989Z" fill="url(#paint4_linear_116_300)" fill-opacity="0.96"/>
<rect x="208.419" y="71.916" width="49.1597" height="3.78151" rx="1.89076" fill="white"/>
<rect x="208.419" y="87.042" width="49.1597" height="3.78151" rx="1.89076" fill="white"/>
<rect x="208.419" y="100.656" width="49.1597" height="3.78151" rx="1.89076" fill="white"/>
<rect x="208.419" y="117.294" width="49.1597" height="3.78151" rx="1.89076" fill="white"/>
<rect x="0.998535" y="22" width="90" height="124.034" rx="7.56303" fill="black"/>
<rect x="0.998535" y="22" width="86.9748" height="121.008" rx="7.56303" fill="url(#paint5_linear_116_300)"/>
<path d="M25.4839 62.7013V42.0749H26.8053V62.7013H25.4839ZM28.3523 49.2941C28.3093 48.757 28.1079 48.338 27.748 48.0372C27.3934 47.7364 26.8536 47.586 26.1285 47.586C25.6665 47.586 25.2878 47.6424 24.9924 47.7552C24.7023 47.8626 24.4875 48.0104 24.3478 48.1984C24.2082 48.3864 24.1357 48.6012 24.1303 48.8429C24.1195 49.0417 24.1545 49.2216 24.235 49.3828C24.321 49.5385 24.4553 49.6809 24.6379 49.8098C24.8205 49.9333 25.0542 50.0461 25.3389 50.1482C25.6235 50.2503 25.962 50.3416 26.3541 50.4221L27.7077 50.7122C28.6208 50.9056 29.4024 51.1607 30.0523 51.4776C30.7023 51.7946 31.234 52.1679 31.6476 52.5976C32.0613 53.0219 32.3647 53.5 32.5581 54.0318C32.7569 54.5635 32.8589 55.1437 32.8643 55.7721C32.8589 56.8572 32.5877 57.7757 32.0505 58.5277C31.5134 59.2797 30.7452 59.8518 29.7461 60.2439C28.7524 60.636 27.5573 60.832 26.1607 60.832C24.7265 60.832 23.475 60.6199 22.406 60.1955C21.3425 59.7712 20.5153 59.1185 19.9244 58.2376C19.3389 57.3513 19.0435 56.218 19.0381 54.8375H23.2923C23.3192 55.3424 23.4454 55.7668 23.671 56.1105C23.8966 56.4543 24.2135 56.7148 24.6218 56.8921C25.0354 57.0693 25.5269 57.158 26.0962 57.158C26.5743 57.158 26.9745 57.0989 27.2968 56.9807C27.619 56.8625 27.8635 56.6987 28.03 56.4892C28.1965 56.2797 28.2824 56.0407 28.2878 55.7721C28.2824 55.5197 28.1992 55.2994 28.038 55.1114C27.8823 54.9181 27.6244 54.7462 27.2645 54.5958C26.9046 54.44 26.4185 54.295 25.8062 54.1607L24.1625 53.8062C22.7015 53.4892 21.5493 52.9602 20.706 52.2189C19.868 51.4723 19.4517 50.4544 19.4571 49.1652C19.4517 48.1178 19.731 47.2019 20.2951 46.4177C20.8644 45.6281 21.6513 45.0131 22.6558 44.5726C23.6656 44.1322 24.8232 43.9119 26.1285 43.9119C27.4606 43.9119 28.6128 44.1348 29.585 44.5807C30.5572 45.0265 31.3066 45.655 31.833 46.4661C32.3647 47.2718 32.6333 48.2145 32.6387 49.2941H28.3523ZM40.5952 62.7013V42.0749H41.9166V62.7013H40.5952ZM43.4635 49.2941C43.4206 48.757 43.2191 48.338 42.8592 48.0372C42.5047 47.7364 41.9649 47.586 41.2397 47.586C40.7778 47.586 40.3991 47.6424 40.1037 47.7552C39.8136 47.8626 39.5988 48.0104 39.4591 48.1984C39.3194 48.3864 39.2469 48.6012 39.2416 48.8429C39.2308 49.0417 39.2657 49.2216 39.3463 49.3828C39.4322 49.5385 39.5665 49.6809 39.7492 49.8098C39.9318 49.9333 40.1655 50.0461 40.4501 50.1482C40.7348 50.2503 41.0732 50.3416 41.4653 50.4221L42.819 50.7122C43.7321 50.9056 44.5137 51.1607 45.1636 51.4776C45.8135 51.7946 46.3453 52.1679 46.7589 52.5976C47.1725 53.0219 47.476 53.5 47.6694 54.0318C47.8681 54.5635 47.9702 55.1437 47.9756 55.7721C47.9702 56.8572 47.6989 57.7757 47.1618 58.5277C46.6246 59.2797 45.8565 59.8518 44.8574 60.2439C43.8637 60.636 42.6686 60.832 41.272 60.832C39.8378 60.832 38.5862 60.6199 37.5173 60.1955C36.4538 59.7712 35.6266 59.1185 35.0357 58.2376C34.4502 57.3513 34.1548 56.218 34.1494 54.8375H38.4036C38.4305 55.3424 38.5567 55.7668 38.7823 56.1105C39.0079 56.4543 39.3248 56.7148 39.733 56.8921C40.1467 57.0693 40.6381 57.158 41.2075 57.158C41.6856 57.158 42.0858 57.0989 42.408 56.9807C42.7303 56.8625 42.9747 56.6987 43.1412 56.4892C43.3078 56.2797 43.3937 56.0407 43.3991 55.7721C43.3937 55.5197 43.3104 55.2994 43.1493 55.1114C42.9935 54.9181 42.7357 54.7462 42.3758 54.5958C42.0159 54.44 41.5298 54.295 40.9175 54.1607L39.2738 53.8062C37.8127 53.4892 36.6606 52.9602 35.8172 52.2189C34.9793 51.4723 34.563 50.4544 34.5684 49.1652C34.563 48.1178 34.8423 47.2019 35.4063 46.4177C35.9757 45.6281 36.7626 45.0131 37.7671 44.5726C38.7769 44.1322 39.9345 43.9119 41.2397 43.9119C42.5719 43.9119 43.724 44.1348 44.6963 44.5807C45.6685 45.0265 46.4178 45.655 46.9442 46.4661C47.476 47.2718 47.7446 48.2145 47.75 49.2941H43.4635Z" fill="#1713EB"/>
<path d="M54.7219 57.4471V55.1267H56.2044V59.252H54.7971V58.4677H54.7541C54.6646 58.7309 54.5079 58.9368 54.2841 59.0854C54.0603 59.2323 53.7944 59.3057 53.4865 59.3057C53.1982 59.3057 52.9457 59.2394 52.7291 59.1069C52.5142 58.9744 52.3468 58.7918 52.2268 58.559C52.1087 58.3263 52.0487 58.0595 52.0469 57.7587V55.1267H53.5294V57.4471C53.5312 57.6513 53.5831 57.8115 53.6852 57.9279C53.789 58.0443 53.9341 58.1025 54.1203 58.1025C54.2438 58.1025 54.3504 58.0765 54.4399 58.0246C54.5312 57.9709 54.601 57.8957 54.6494 57.799C54.6995 57.7005 54.7237 57.5832 54.7219 57.4471ZM60.7292 56.4695H59.3649C59.3577 56.3854 59.3281 56.3129 59.2762 56.252C59.2243 56.1911 59.1572 56.1446 59.0748 56.1123C58.9942 56.0783 58.9047 56.0613 58.8062 56.0613C58.6791 56.0613 58.5699 56.0846 58.4786 56.1311C58.3872 56.1777 58.3425 56.2439 58.3443 56.3299C58.3425 56.3908 58.3684 56.4472 58.4222 56.4991C58.4777 56.551 58.5842 56.5913 58.7418 56.6199L59.5797 56.7703C60.0023 56.8473 60.3165 56.9771 60.5224 57.1598C60.7301 57.3406 60.8348 57.5832 60.8366 57.8876C60.8348 58.1812 60.7471 58.4364 60.5734 58.653C60.4015 58.8679 60.1661 59.0344 59.8671 59.1526C59.5699 59.269 59.2306 59.3272 58.8492 59.3272C58.2189 59.3272 57.7257 59.1982 57.3694 58.9404C57.0148 58.6826 56.817 58.3424 56.7758 57.9198H58.2476C58.2673 58.0505 58.3317 58.1517 58.441 58.2233C58.552 58.2931 58.6916 58.3281 58.8599 58.3281C58.996 58.3281 59.1079 58.3048 59.1957 58.2582C59.2852 58.2117 59.3308 58.1454 59.3326 58.0595C59.3308 57.9807 59.2914 57.918 59.2145 57.8715C59.1393 57.8249 59.0211 57.7873 58.8599 57.7587L58.1294 57.6298C57.7087 57.5564 57.3935 57.4167 57.184 57.2108C56.9746 57.0049 56.8707 56.7399 56.8725 56.4158C56.8707 56.1293 56.9459 55.8867 57.0981 55.688C57.2521 55.4874 57.4714 55.3353 57.7561 55.2314C58.0426 55.1258 58.3819 55.073 58.774 55.073C59.3702 55.073 59.8402 55.1965 60.184 55.4436C60.5296 55.6907 60.7113 56.0327 60.7292 56.4695ZM62.8979 59.3057C62.6043 59.3057 62.3339 59.2287 62.0868 59.0747C61.8415 58.9207 61.6446 58.6871 61.496 58.3737C61.3492 58.0604 61.2758 57.6656 61.2758 57.1893C61.2758 56.6916 61.3527 56.2869 61.5067 55.9754C61.6625 55.6638 61.863 55.4355 62.1083 55.2905C62.3554 55.1455 62.615 55.073 62.8872 55.073C63.0913 55.073 63.2704 55.1088 63.4243 55.1804C63.5783 55.2502 63.7072 55.3442 63.8111 55.4624C63.9149 55.5788 63.9937 55.7068 64.0474 55.8464H64.0689V53.7516H65.5514V59.252H64.0797V58.5751H64.0474C63.9901 58.7148 63.9078 58.8401 63.8003 58.9512C63.6947 59.0604 63.5658 59.1472 63.4136 59.2117C63.2632 59.2743 63.0913 59.3057 62.8979 59.3057ZM63.4458 58.1669C63.5819 58.1669 63.6983 58.1275 63.795 58.0487C63.8934 57.9682 63.9686 57.8554 64.0206 57.7103C64.0743 57.5635 64.1011 57.3898 64.1011 57.1893C64.1011 56.9852 64.0743 56.8106 64.0206 56.6656C63.9686 56.5188 63.8934 56.4069 63.795 56.3299C63.6983 56.2511 63.5819 56.2117 63.4458 56.2117C63.3097 56.2117 63.1934 56.2511 63.0967 56.3299C63.0018 56.4069 62.9284 56.5188 62.8765 56.6656C62.8263 56.8106 62.8012 56.9852 62.8012 57.1893C62.8012 57.3934 62.8263 57.5689 62.8765 57.7157C62.9284 57.8607 63.0018 57.9726 63.0967 58.0514C63.1934 58.1284 63.3097 58.1669 63.4458 58.1669Z" fill="#1713EB"/>
<g clip-path="url(#clip1_116_300)">
<path d="M19.2442 117.341C19.2442 118.254 18.5021 118.996 17.5898 118.996C16.6775 118.996 15.9354 118.254 15.9354 117.341C15.9354 116.429 16.6775 115.687 17.5898 115.687C18.5021 115.687 19.2442 116.429 19.2442 117.341ZM18.2989 119.842C18.0625 119.903 17.8262 119.941 17.5898 119.941C16.9007 119.94 16.2402 119.666 15.7529 119.178C15.2656 118.691 14.9913 118.031 14.99 117.341C14.99 116.647 15.2642 116.018 15.6991 115.55C15.6133 115.445 15.5051 115.36 15.3825 115.302C15.2598 115.244 15.1257 115.214 14.99 115.214C14.4701 115.214 14.0447 115.64 14.0447 116.16V116.297C12.6408 116.713 11.6812 118.003 11.6812 119.469V122.305L10.7358 123.25V123.723H19.2442V123.25L18.2989 122.305V119.842ZM14.99 125.141C15.5147 125.141 15.9354 124.72 15.9354 124.195H14.0447C14.0447 124.446 14.1443 124.687 14.3216 124.864C14.4989 125.041 14.7393 125.141 14.99 125.141Z" fill="url(#paint6_linear_116_300)" fill-opacity="0.96"/>
</g>
<path d="M14.0446 108.313C13.5246 108.313 13.0795 108.127 12.7092 107.757C12.3389 107.387 12.1538 106.942 12.1538 106.422C12.1538 105.902 12.3389 105.457 12.7092 105.086C13.0795 104.716 13.5246 104.531 14.0446 104.531C14.2258 104.531 14.3931 104.553 14.5466 104.596C14.7003 104.639 14.8481 104.704 14.9899 104.791V100.75C14.9899 100.49 15.0826 100.267 15.2679 100.082C15.4529 99.8967 15.6753 99.8042 15.9353 99.8042H16.8807C17.1407 99.8042 17.3633 99.8967 17.5486 100.082C17.7336 100.267 17.8261 100.49 17.8261 100.75C17.8261 101.01 17.7336 101.232 17.5486 101.417C17.3633 101.602 17.1407 101.695 16.8807 101.695H15.9353V106.422C15.9353 106.942 15.7502 107.387 15.3799 107.757C15.0096 108.127 14.5645 108.313 14.0446 108.313Z" fill="url(#paint7_linear_116_300)" fill-opacity="0.96"/>
<path d="M18.2988 85.5342L17.6323 84.8677L14.99 87.51L12.3476 84.8677L11.6812 85.5342L14.3235 88.1765L11.6812 90.8188L12.3476 91.4853L14.99 88.843L17.6323 91.4853L18.2988 90.8188L15.6565 88.1765L18.2988 85.5342Z" fill="url(#paint8_linear_116_300)" fill-opacity="0.96"/>
<path d="M13.832 77.3989L11.1377 74.7046L11.8113 74.031L13.832 76.0518L18.1689 71.7148L18.8425 72.3884L13.832 77.3989Z" fill="url(#paint9_linear_116_300)" fill-opacity="0.96"/>
<rect x="21.4189" y="71.916" width="49.1597" height="3.78151" rx="1.89076" fill="white"/>
<rect x="21.4189" y="87.042" width="49.1597" height="3.78151" rx="1.89076" fill="white"/>
<rect x="21.4189" y="100.656" width="49.1597" height="3.78151" rx="1.89076" fill="white"/>
<rect x="21.4189" y="117.294" width="49.1597" height="3.78151" rx="1.89076" fill="white"/>
<g filter="url(#filter0_d_116_300)">
<rect x="79.9985" y="4" width="119" height="164" rx="10" fill="black"/>
<rect x="79.9985" y="4" width="115" height="160" rx="10" fill="url(#paint10_linear_116_300)"/>
<path d="M112.374 57.7273V30.4545H114.121V57.7273H112.374ZM116.166 40C116.109 39.2898 115.843 38.7358 115.367 38.3381C114.898 37.9403 114.185 37.7415 113.226 37.7415C112.615 37.7415 112.114 37.8161 111.724 37.9652C111.34 38.1072 111.056 38.3026 110.871 38.5511C110.687 38.7997 110.591 39.0838 110.584 39.4034C110.57 39.6662 110.616 39.9041 110.722 40.1172C110.836 40.3232 111.013 40.5114 111.255 40.6818C111.496 40.8452 111.805 40.9943 112.182 41.1293C112.558 41.2642 113.006 41.3849 113.524 41.4915L115.314 41.875C116.521 42.1307 117.555 42.468 118.414 42.8871C119.273 43.3061 119.977 43.7997 120.523 44.3679C121.07 44.929 121.472 45.5611 121.727 46.2642C121.99 46.9673 122.125 47.7344 122.132 48.5653C122.125 50 121.766 51.2145 121.056 52.2088C120.346 53.2031 119.33 53.9595 118.009 54.478C116.695 54.9964 115.115 55.2557 113.268 55.2557C111.372 55.2557 109.717 54.9751 108.304 54.4141C106.898 53.853 105.804 52.9901 105.023 51.8253C104.249 50.6534 103.858 49.1548 103.851 47.3295H109.476C109.511 47.9972 109.678 48.5582 109.977 49.0128C110.275 49.4673 110.694 49.8118 111.234 50.0462C111.78 50.2805 112.43 50.3977 113.183 50.3977C113.815 50.3977 114.344 50.3196 114.771 50.1634C115.197 50.0071 115.52 49.7905 115.74 49.5135C115.96 49.2365 116.074 48.9205 116.081 48.5653C116.074 48.2315 115.964 47.9403 115.751 47.6918C115.545 47.4361 115.204 47.2088 114.728 47.0099C114.252 46.804 113.609 46.6122 112.8 46.4347L110.626 45.9659C108.695 45.5469 107.171 44.8473 106.056 43.8672C104.948 42.88 104.398 41.5341 104.405 39.8295C104.398 38.4446 104.767 37.2337 105.513 36.1967C106.266 35.1527 107.306 34.3395 108.634 33.7571C109.969 33.1747 111.5 32.8835 113.226 32.8835C114.987 32.8835 116.511 33.1783 117.796 33.7678C119.082 34.3572 120.072 35.1882 120.768 36.2607C121.472 37.326 121.827 38.5724 121.834 40H116.166ZM132.354 57.7273V30.4545H134.101V57.7273H132.354ZM136.147 40C136.09 39.2898 135.823 38.7358 135.348 38.3381C134.879 37.9403 134.165 37.7415 133.206 37.7415C132.595 37.7415 132.095 37.8161 131.704 37.9652C131.321 38.1072 131.037 38.3026 130.852 38.5511C130.667 38.7997 130.571 39.0838 130.564 39.4034C130.55 39.6662 130.596 39.9041 130.703 40.1172C130.816 40.3232 130.994 40.5114 131.235 40.6818C131.477 40.8452 131.786 40.9943 132.162 41.1293C132.539 41.2642 132.986 41.3849 133.505 41.4915L135.294 41.875C136.502 42.1307 137.535 42.468 138.394 42.8871C139.254 43.3061 139.957 43.7997 140.504 44.3679C141.051 44.929 141.452 45.5611 141.708 46.2642C141.97 46.9673 142.105 47.7344 142.113 48.5653C142.105 50 141.747 51.2145 141.037 52.2088C140.326 53.2031 139.311 53.9595 137.99 54.478C136.676 54.9964 135.095 55.2557 133.249 55.2557C131.353 55.2557 129.698 54.9751 128.284 54.4141C126.878 53.853 125.784 52.9901 125.003 51.8253C124.229 50.6534 123.838 49.1548 123.831 47.3295H129.456C129.492 47.9972 129.659 48.5582 129.957 49.0128C130.255 49.4673 130.674 49.8118 131.214 50.0462C131.761 50.2805 132.411 50.3977 133.164 50.3977C133.796 50.3977 134.325 50.3196 134.751 50.1634C135.177 50.0071 135.5 49.7905 135.72 49.5135C135.941 49.2365 136.054 48.9205 136.061 48.5653C136.054 48.2315 135.944 47.9403 135.731 47.6918C135.525 47.4361 135.184 47.2088 134.708 47.0099C134.233 46.804 133.59 46.6122 132.78 46.4347L130.607 45.9659C128.675 45.5469 127.152 44.8473 126.037 43.8672C124.929 42.88 124.378 41.5341 124.385 39.8295C124.378 38.4446 124.747 37.2337 125.493 36.1967C126.246 35.1527 127.287 34.3395 128.615 33.7571C129.95 33.1747 131.48 32.8835 133.206 32.8835C134.968 32.8835 136.491 33.1783 137.777 33.7678C139.062 34.3572 140.053 35.1882 140.749 36.2607C141.452 37.326 141.807 38.5724 141.814 40H136.147Z" fill="#1713EB"/>
<path d="M151.033 51.6136V48.5455H152.993V54H151.132V52.9631H151.075C150.957 53.3111 150.75 53.5833 150.454 53.7798C150.158 53.974 149.806 54.071 149.399 54.071C149.018 54.071 148.684 53.9834 148.398 53.8082C148.114 53.633 147.892 53.3916 147.734 53.0838C147.577 52.776 147.498 52.4233 147.496 52.0256V48.5455H149.456V51.6136C149.458 51.8835 149.527 52.0954 149.662 52.2493C149.799 52.4032 149.991 52.4801 150.237 52.4801C150.401 52.4801 150.541 52.4458 150.66 52.3771C150.78 52.3061 150.873 52.2067 150.937 52.0788C151.003 51.9486 151.035 51.7936 151.033 51.6136ZM158.976 50.321H157.172C157.162 50.2098 157.123 50.1139 157.054 50.0334C156.986 49.9529 156.897 49.8913 156.788 49.8487C156.682 49.8037 156.563 49.7812 156.433 49.7812C156.265 49.7812 156.121 49.812 156 49.8736C155.879 49.9351 155.82 50.0227 155.822 50.1364C155.82 50.2169 155.854 50.2914 155.925 50.3601C155.999 50.4287 156.139 50.482 156.348 50.5199L157.456 50.7188C158.014 50.8205 158.43 50.9922 158.702 51.2337C158.977 51.4728 159.115 51.7936 159.118 52.196C159.115 52.5843 158.999 52.9216 158.77 53.2081C158.542 53.4922 158.231 53.7124 157.836 53.8686C157.443 54.0225 156.994 54.0994 156.49 54.0994C155.657 54.0994 155.004 53.929 154.533 53.5881C154.064 53.2472 153.803 52.7973 153.748 52.2386H155.694C155.72 52.4115 155.806 52.5452 155.95 52.6399C156.097 52.7322 156.282 52.7784 156.504 52.7784C156.684 52.7784 156.832 52.7476 156.948 52.6861C157.066 52.6245 157.127 52.5369 157.129 52.4233C157.127 52.3191 157.075 52.2363 156.973 52.1747C156.873 52.1132 156.717 52.0634 156.504 52.0256L155.538 51.8551C154.982 51.758 154.565 51.5734 154.288 51.3011C154.011 51.0289 153.874 50.6785 153.876 50.25C153.874 49.8712 153.973 49.5504 154.174 49.2876C154.378 49.0225 154.668 48.8213 155.045 48.6839C155.423 48.5443 155.872 48.4744 156.39 48.4744C157.179 48.4744 157.8 48.6378 158.255 48.9645C158.712 49.2912 158.952 49.7434 158.976 50.321ZM161.843 54.071C161.455 54.071 161.097 53.9692 160.771 53.7656C160.446 53.562 160.186 53.2531 159.989 52.8388C159.795 52.4245 159.698 51.9025 159.698 51.2727C159.698 50.6146 159.8 50.0795 160.004 49.6676C160.21 49.2557 160.475 48.9538 160.799 48.7621C161.126 48.5703 161.469 48.4744 161.829 48.4744C162.099 48.4744 162.336 48.5218 162.539 48.6165C162.743 48.7088 162.913 48.8331 163.051 48.9893C163.188 49.1432 163.292 49.3125 163.363 49.4972H163.391V46.7273H165.352V54H163.406V53.1051H163.363C163.287 53.2898 163.178 53.4555 163.036 53.6023C162.897 53.7467 162.726 53.8615 162.525 53.9467C162.326 54.0296 162.099 54.071 161.843 54.071ZM162.568 52.5653C162.748 52.5653 162.901 52.5133 163.029 52.4091C163.159 52.3026 163.259 52.1534 163.328 51.9616C163.399 51.7675 163.434 51.5379 163.434 51.2727C163.434 51.0028 163.399 50.772 163.328 50.5803C163.259 50.3861 163.159 50.2382 163.029 50.1364C162.901 50.0322 162.748 49.9801 162.568 49.9801C162.388 49.9801 162.234 50.0322 162.106 50.1364C161.98 50.2382 161.883 50.3861 161.815 50.5803C161.748 50.772 161.715 51.0028 161.715 51.2727C161.715 51.5426 161.748 51.7746 161.815 51.9688C161.883 52.1605 161.98 52.3085 162.106 52.4126C162.234 52.5144 162.388 52.5653 162.568 52.5653Z" fill="#1713EB"/>
<path d="M104.124 130.063C104.124 131.269 103.142 132.25 101.936 132.25C100.73 132.25 99.7485 131.269 99.7485 130.063C99.7485 128.856 100.73 127.875 101.936 127.875C103.142 127.875 104.124 128.856 104.124 130.063ZM102.874 133.369C102.561 133.45 102.249 133.5 101.936 133.5C101.025 133.498 100.151 133.136 99.5072 132.491C98.8629 131.847 98.5002 130.974 98.4985 130.063C98.4985 129.144 98.861 128.313 99.436 127.694C99.3226 127.555 99.1796 127.443 99.0174 127.366C98.8552 127.289 98.678 127.25 98.4985 127.25C97.811 127.25 97.2485 127.813 97.2485 128.5V128.681C95.3923 129.231 94.1235 130.938 94.1235 132.875V136.625L92.8735 137.875V138.5H104.124V137.875L102.874 136.625V133.369ZM98.4985 140.375C99.1923 140.375 99.7485 139.819 99.7485 139.125H97.2485C97.2485 139.457 97.3802 139.774 97.6147 140.009C97.8491 140.243 98.167 140.375 98.4985 140.375Z" fill="url(#paint11_linear_116_300)" fill-opacity="0.96"/>
<path d="M97.2485 118.125C96.561 118.125 95.9725 117.88 95.4829 117.391C94.9933 116.901 94.7485 116.313 94.7485 115.625C94.7485 114.937 94.9933 114.349 95.4829 113.859C95.9725 113.37 96.561 113.125 97.2485 113.125C97.4881 113.125 97.7094 113.154 97.9123 113.211C98.1156 113.268 98.311 113.354 98.4985 113.469V108.125C98.4985 107.781 98.621 107.487 98.866 107.242C99.1106 106.997 99.4048 106.875 99.7485 106.875H100.999C101.342 106.875 101.637 106.997 101.882 107.242C102.126 107.487 102.249 107.781 102.249 108.125C102.249 108.469 102.126 108.763 101.882 109.008C101.637 109.253 101.342 109.375 100.999 109.375H99.7485V115.625C99.7485 116.313 99.5037 116.901 99.0142 117.391C98.5246 117.88 97.936 118.125 97.2485 118.125Z" fill="url(#paint12_linear_116_300)" fill-opacity="0.96"/>
<path d="M102.874 88.0062L101.992 87.125L98.4985 90.6188L95.0048 87.125L94.1235 88.0062L97.6173 91.5L94.1235 94.9938L95.0048 95.875L98.4985 92.3812L101.992 95.875L102.874 94.9938L99.3798 91.5L102.874 88.0062Z" fill="url(#paint13_linear_116_300)" fill-opacity="0.96"/>
<path d="M96.9673 77.25L93.4048 73.6875L94.2954 72.7969L96.9673 75.4687L102.702 69.7344L103.592 70.625L96.9673 77.25Z" fill="url(#paint14_linear_116_300)" fill-opacity="0.96"/>
<rect x="106.999" y="70" width="65" height="5" rx="2.5" fill="white"/>
<rect x="106.999" y="90" width="65" height="5" rx="2.5" fill="white"/>
<rect x="106.999" y="108" width="65" height="5" rx="2.5" fill="white"/>
<rect x="106.999" y="130" width="65" height="5" rx="2.5" fill="white"/>
</g>
<defs>
<filter id="filter0_d_116_300" x="70.9985" y="0" width="128" height="172" filterUnits="userSpaceOnUse" color-interpolation-filters="sRGB">
<feFlood flood-opacity="0" result="BackgroundImageFix"/>
<feColorMatrix in="SourceAlpha" type="matrix" values="0 0 0 0 0 0 0 0 0 0 0 0 0 0 0 0 0 0 127 0" result="hardAlpha"/>
<feOffset dx="-5"/>
<feGaussianBlur stdDeviation="2"/>
<feComposite in2="hardAlpha" operator="out"/>
<feColorMatrix type="matrix" values="0 0 0 0 0 0 0 0 0 0 0 0 0 0 0 0 0 0 0.25 0"/>
<feBlend mode="normal" in2="BackgroundImageFix" result="effect1_dropShadow_116_300"/>
<feBlend mode="normal" in="SourceGraphic" in2="effect1_dropShadow_116_300" result="shape"/>
</filter>
<linearGradient id="paint0_linear_116_300" x1="231.486" y1="22" x2="231.486" y2="143.008" gradientUnits="userSpaceOnUse">
<stop stop-color="white" stop-opacity="0.91"/>
<stop offset="0.0625" stop-color="#2BBCAB"/>
<stop offset="1" stop-color="#0EAB27"/>
</linearGradient>
<linearGradient id="paint1_linear_116_300" x1="201.99" y1="115.214" x2="201.99" y2="125.141" gradientUnits="userSpaceOnUse">
<stop stop-color="#DE00A0"/>
<stop offset="1" stop-color="#1E0CED"/>
</linearGradient>
<linearGradient id="paint2_linear_116_300" x1="201.99" y1="99.8042" x2="201.99" y2="108.313" gradientUnits="userSpaceOnUse">
<stop stop-color="#DE00A0"/>
<stop offset="1" stop-color="#1E0CED"/>
</linearGradient>
<linearGradient id="paint3_linear_116_300" x1="201.99" y1="84.8677" x2="201.99" y2="91.4853" gradientUnits="userSpaceOnUse">
<stop stop-color="#DE00A0"/>
<stop offset="1" stop-color="#1E0CED"/>
</linearGradient>
<linearGradient id="paint4_linear_116_300" x1="201.99" y1="71.7148" x2="201.99" y2="77.3989" gradientUnits="userSpaceOnUse">
<stop stop-color="#DE00A0"/>
<stop offset="1" stop-color="#1E0CED"/>
</linearGradient>
<linearGradient id="paint5_linear_116_300" x1="44.4859" y1="22" x2="44.4859" y2="143.008" gradientUnits="userSpaceOnUse">
<stop stop-color="white" stop-opacity="0.91"/>
<stop offset="0.0625" stop-color="#2BBCAB"/>
<stop offset="1" stop-color="#0EAB27"/>
</linearGradient>
<linearGradient id="paint6_linear_116_300" x1="14.99" y1="115.214" x2="14.99" y2="125.141" gradientUnits="userSpaceOnUse">
<stop stop-color="#DE00A0"/>
<stop offset="1" stop-color="#1E0CED"/>
</linearGradient>
<linearGradient id="paint7_linear_116_300" x1="14.9899" y1="99.8042" x2="14.9899" y2="108.313" gradientUnits="userSpaceOnUse">
<stop stop-color="#DE00A0"/>
<stop offset="1" stop-color="#1E0CED"/>
</linearGradient>
<linearGradient id="paint8_linear_116_300" x1="14.99" y1="84.8677" x2="14.99" y2="91.4853" gradientUnits="userSpaceOnUse">
<stop stop-color="#DE00A0"/>
<stop offset="1" stop-color="#1E0CED"/>
</linearGradient>
<linearGradient id="paint9_linear_116_300" x1="14.9901" y1="71.7148" x2="14.9901" y2="77.3989" gradientUnits="userSpaceOnUse">
<stop stop-color="#DE00A0"/>
<stop offset="1" stop-color="#1E0CED"/>
</linearGradient>
<linearGradient id="paint10_linear_116_300" x1="137.499" y1="4" x2="137.499" y2="164" gradientUnits="userSpaceOnUse">
<stop stop-color="white" stop-opacity="0.91"/>
<stop offset="0.0625" stop-color="#2BBCAB"/>
<stop offset="1" stop-color="#0EAB27"/>
</linearGradient>
<linearGradient id="paint11_linear_116_300" x1="98.4985" y1="127.25" x2="98.4985" y2="140.375" gradientUnits="userSpaceOnUse">
<stop stop-color="#DE00A0"/>
<stop offset="1" stop-color="#1E0CED"/>
</linearGradient>
<linearGradient id="paint12_linear_116_300" x1="98.4985" y1="106.875" x2="98.4985" y2="118.125" gradientUnits="userSpaceOnUse">
<stop stop-color="#DE00A0"/>
<stop offset="1" stop-color="#1E0CED"/>
</linearGradient>
<linearGradient id="paint13_linear_116_300" x1="98.4985" y1="87.125" x2="98.4985" y2="95.875" gradientUnits="userSpaceOnUse">
<stop stop-color="#DE00A0"/>
<stop offset="1" stop-color="#1E0CED"/>
</linearGradient>
<linearGradient id="paint14_linear_116_300" x1="98.4985" y1="69.7344" x2="98.4985" y2="77.25" gradientUnits="userSpaceOnUse">
<stop stop-color="#DE00A0"/>
<stop offset="1" stop-color="#1E0CED"/>
</linearGradient>
<clipPath id="clip0_116_300">
<rect width="11.3445" height="11.3445" fill="white" transform="translate(196.318 114.269)"/>
</clipPath>
<clipPath id="clip1_116_300">
<rect width="11.3445" height="11.3445" fill="white" transform="translate(9.31787 114.269)"/>
</clipPath>
</defs>
</svg>
