<svg width="157" height="982" viewBox="0 0 157 982" fill="none" xmlns="http://www.w3.org/2000/svg"><path fill-rule="evenodd" clip-rule="evenodd" d="M55.7119 0L69.098 40.9167C82.9303 81.8333 109.703 163.667 99.4398 245.5C89.6234 327.333 42.3259 409.167 18.6771 491C-4.97166 572.833 -4.97166 654.667 11.9841 736.5C28.4936 818.333 62.405 900.167 79.3607 941.083L96.3164 982H157V941.083C157 900.167 157 818.333 157 736.5C157 654.667 157 572.833 157 491C157 409.167 157 327.333 157 245.5C157 163.667 157 81.8333 157 40.9167V0L55.7119 0Z" fill="white"/></svg>
